<?xml version="1.0" encoding="utf-8"?>
<!-- Generator: Adobe Illustrator 22.1.0, SVG Export Plug-In . SVG Version: 6.00 Build 0)  -->
<svg version="1.1" id="Layer_1" xmlns="http://www.w3.org/2000/svg" xmlns:xlink="http://www.w3.org/1999/xlink" x="0px" y="0px"
	 viewBox="0 0 93.3 10.6" style="enable-background:new 0 0 93.3 10.6;" xml:space="preserve">
<style type="text/css">
	.st0{fill:#60D158;}
</style>
<g>
	<path class="st0" d="M0.5,7.9v-7h2.7c0.6,0,1.1,0.1,1.5,0.3c0.4,0.2,0.8,0.4,1.1,0.7C6.1,2.2,6.3,2.6,6.5,3
		c0.2,0.4,0.2,0.9,0.2,1.3c0,0.5-0.1,1-0.3,1.4C6.3,6.2,6,6.6,5.7,6.9C5.4,7.2,5.1,7.5,4.6,7.6C4.2,7.8,3.7,7.9,3.2,7.9H0.5z
		 M4.7,4.4c0-0.3,0-0.5-0.1-0.7C4.6,3.4,4.5,3.2,4.3,3.1C4.2,2.9,4,2.8,3.8,2.7C3.6,2.6,3.4,2.6,3.2,2.6H2.4v3.6h0.8
		c0.2,0,0.5,0,0.7-0.1C4,6,4.2,5.8,4.3,5.7c0.1-0.2,0.2-0.4,0.3-0.6C4.7,4.9,4.7,4.6,4.7,4.4z"/>
	<path class="st0" d="M8.8,8C8.2,8,7.8,7.8,7.6,7.5C7.3,7.2,7.2,6.7,7.2,6.1V2.7H9v3c0,0.2,0.1,0.4,0.2,0.5c0.1,0.1,0.2,0.2,0.4,0.2
		c0.1,0,0.3,0,0.4-0.1c0.2-0.1,0.3-0.2,0.5-0.4V2.7h1.9v3.1c0,0.2,0,0.3,0.1,0.4c0.1,0.1,0.1,0.1,0.3,0.1v1.6
		C12.4,7.9,12.1,8,11.9,8c-0.6,0-1-0.2-1.1-0.7l0-0.2c-0.2,0.3-0.5,0.6-0.9,0.7C9.6,7.9,9.2,8,8.8,8z"/>
	<path class="st0" d="M16.7,7.9L15.5,6l-0.4,0.4v1.5h-1.9V0.7h1.9v3.9l1.4-1.9h2L16.7,5l2,2.9H16.7z"/>
	<path class="st0" d="M22.4,7.6c-0.3,0.1-0.5,0.2-0.8,0.3C21.3,7.9,21,8,20.7,8c-0.2,0-0.4,0-0.6-0.1c-0.2-0.1-0.4-0.1-0.5-0.3
		c-0.1-0.1-0.3-0.3-0.3-0.5c-0.1-0.2-0.1-0.4-0.1-0.7V4.1h-0.6V2.7h0.6V1.1H21v1.6h1v1.4h-1v1.7c0,0.2,0,0.3,0.1,0.4
		c0.1,0.1,0.2,0.1,0.3,0.1c0.1,0,0.2,0,0.3,0c0.1,0,0.2-0.1,0.4-0.1L22.4,7.6z"/>
	<path class="st0" d="M22.7,2.3V0.7h1.9v1.6H22.7z M22.7,7.9V2.7h1.9v5.2H22.7z"/>
	<path class="st0" d="M27.3,7.9c-0.3,0-0.6-0.1-0.9-0.2c-0.3-0.1-0.5-0.3-0.7-0.5c-0.2-0.2-0.3-0.5-0.5-0.8c-0.1-0.3-0.2-0.7-0.2-1
		c0-0.4,0.1-0.7,0.2-1.1c0.1-0.3,0.3-0.6,0.5-0.8c0.2-0.2,0.5-0.4,0.8-0.6c0.3-0.1,0.6-0.2,1-0.2c0.4,0,0.7,0.1,1,0.2
		C28.7,3,29,3.2,29.1,3.5V2.7h1.6v4.7c0,0.4-0.1,0.8-0.2,1.1c-0.2,0.3-0.4,0.6-0.6,0.8c-0.3,0.2-0.6,0.4-1,0.5
		c-0.4,0.1-0.8,0.2-1.3,0.2c-0.5,0-1-0.1-1.4-0.3c-0.4-0.2-0.8-0.4-1.1-0.7l1-1c0.2,0.2,0.4,0.3,0.7,0.4c0.3,0.1,0.5,0.2,0.8,0.2
		c0.2,0,0.3,0,0.5-0.1c0.2,0,0.3-0.1,0.4-0.2c0.1-0.1,0.2-0.2,0.3-0.4s0.1-0.4,0.1-0.6V7.1c-0.2,0.3-0.4,0.5-0.6,0.6
		C28,7.8,27.7,7.9,27.3,7.9z M28,6.4c0.2,0,0.4,0,0.5-0.1c0.1-0.1,0.3-0.2,0.4-0.4V4.9c-0.1-0.2-0.2-0.4-0.4-0.6
		c-0.2-0.1-0.4-0.2-0.6-0.2c-0.1,0-0.3,0-0.4,0.1c-0.1,0.1-0.2,0.1-0.3,0.2c-0.1,0.1-0.2,0.2-0.2,0.4C27,5,27,5.2,27,5.3
		c0,0.3,0.1,0.6,0.3,0.8C27.5,6.3,27.7,6.4,28,6.4z"/>
</g>
<g>
	<path d="M31.8,7.9V6.6h1.1v1.4H31.8z"/>
	<path d="M39.7,7.9V3.4L38,6.8h-0.7l-1.8-3.4v4.5h-1.3V1.1h1.4l2,3.9l2-3.9H41v6.8H39.7z"/>
	<path d="M42.3,2.2V0.9h1.3v1.3H42.3z M42.3,7.9V2.9h1.3v5.1H42.3z"/>
	<path d="M44.5,5.4c0-0.4,0.1-0.7,0.2-1c0.1-0.3,0.3-0.6,0.5-0.8C45.4,3.3,45.7,3.2,46,3c0.3-0.1,0.7-0.2,1.1-0.2
		c0.6,0,1,0.1,1.4,0.4c0.4,0.2,0.7,0.5,0.9,0.9l-1.3,0.4c-0.1-0.2-0.3-0.3-0.4-0.4c-0.2-0.1-0.4-0.1-0.6-0.1c-0.2,0-0.4,0-0.5,0.1
		c-0.2,0.1-0.3,0.2-0.4,0.3c-0.1,0.1-0.2,0.3-0.3,0.5c-0.1,0.2-0.1,0.4-0.1,0.6c0,0.2,0,0.4,0.1,0.6c0.1,0.2,0.2,0.3,0.3,0.5
		c0.1,0.1,0.3,0.2,0.4,0.3c0.2,0.1,0.3,0.1,0.5,0.1c0.2,0,0.4-0.1,0.6-0.2c0.2-0.1,0.3-0.3,0.4-0.4l1.3,0.4
		c-0.2,0.4-0.5,0.7-0.9,0.9C48.2,7.9,47.7,8,47.2,8c-0.4,0-0.8-0.1-1.1-0.2c-0.3-0.1-0.6-0.3-0.8-0.6C45,7,44.8,6.7,44.7,6.4
		C44.6,6.1,44.5,5.8,44.5,5.4z"/>
	<path d="M53.3,4c-0.4,0-0.7,0.1-1.1,0.2c-0.3,0.1-0.5,0.4-0.7,0.7v3.1h-1.3V2.9h1.2V4c0.1-0.2,0.2-0.3,0.3-0.5
		c0.1-0.1,0.3-0.3,0.4-0.4C52.3,3,52.4,3,52.6,2.9c0.1-0.1,0.3-0.1,0.4-0.1c0.1,0,0.1,0,0.2,0c0,0,0.1,0,0.1,0V4z"/>
	<path d="M56.1,8C55.6,8,55.3,8,55,7.8c-0.3-0.1-0.6-0.3-0.8-0.6c-0.2-0.2-0.4-0.5-0.5-0.8c-0.1-0.3-0.2-0.6-0.2-1
		c0-0.4,0.1-0.7,0.2-1c0.1-0.3,0.3-0.6,0.5-0.8C54.3,3.3,54.6,3.2,55,3c0.3-0.1,0.7-0.2,1.1-0.2c0.4,0,0.8,0.1,1.1,0.2
		c0.3,0.1,0.6,0.3,0.8,0.6c0.2,0.2,0.4,0.5,0.5,0.8c0.1,0.3,0.2,0.6,0.2,1c0,0.3-0.1,0.7-0.2,1C58.4,6.7,58.2,7,58,7.3
		c-0.2,0.2-0.5,0.4-0.8,0.6C56.8,8,56.5,8,56.1,8z M54.7,5.4c0,0.2,0,0.4,0.1,0.6c0.1,0.2,0.2,0.3,0.3,0.5c0.1,0.1,0.3,0.2,0.4,0.3
		c0.2,0.1,0.3,0.1,0.5,0.1c0.2,0,0.4,0,0.5-0.1c0.2-0.1,0.3-0.2,0.4-0.3c0.1-0.1,0.2-0.3,0.3-0.5c0.1-0.2,0.1-0.4,0.1-0.6
		c0-0.2,0-0.4-0.1-0.6c-0.1-0.2-0.2-0.3-0.3-0.5c-0.1-0.1-0.3-0.2-0.4-0.3c-0.2-0.1-0.3-0.1-0.5-0.1c-0.2,0-0.4,0-0.5,0.1
		c-0.2,0.1-0.3,0.2-0.4,0.3c-0.1,0.1-0.2,0.3-0.3,0.5C54.8,5,54.7,5.2,54.7,5.4z"/>
	<path d="M61.5,8c-0.4,0-0.8-0.1-1.2-0.2c-0.4-0.1-0.8-0.3-1-0.6l0.5-0.8c0.3,0.2,0.6,0.4,0.9,0.5c0.3,0.1,0.6,0.2,0.9,0.2
		c0.3,0,0.5,0,0.6-0.1c0.1-0.1,0.2-0.2,0.2-0.4c0-0.2-0.1-0.3-0.3-0.4c-0.2-0.1-0.5-0.2-0.8-0.3c-0.3-0.1-0.6-0.2-0.8-0.3
		c-0.2-0.1-0.4-0.2-0.6-0.3c-0.1-0.1-0.2-0.2-0.3-0.4c-0.1-0.1-0.1-0.3-0.1-0.5c0-0.3,0-0.5,0.1-0.7c0.1-0.2,0.2-0.4,0.4-0.5
		c0.2-0.1,0.4-0.3,0.6-0.3c0.2-0.1,0.5-0.1,0.8-0.1c0.4,0,0.7,0.1,1.1,0.2c0.3,0.1,0.6,0.3,0.9,0.5l-0.5,0.8
		c-0.3-0.2-0.5-0.3-0.7-0.4c-0.2-0.1-0.5-0.1-0.7-0.1c-0.2,0-0.4,0-0.5,0.1c-0.1,0.1-0.2,0.2-0.2,0.4c0,0.1,0,0.2,0.1,0.2
		c0,0.1,0.1,0.1,0.2,0.2c0.1,0,0.2,0.1,0.3,0.1c0.1,0,0.3,0.1,0.5,0.1c0.3,0.1,0.6,0.2,0.9,0.3c0.2,0.1,0.4,0.2,0.6,0.3
		c0.2,0.1,0.3,0.2,0.3,0.4c0.1,0.2,0.1,0.3,0.1,0.5c0,0.5-0.2,0.9-0.5,1.2C62.6,7.9,62.1,8,61.5,8z"/>
	<path d="M66.7,8c-0.4,0-0.8-0.1-1.1-0.2c-0.3-0.1-0.6-0.3-0.8-0.6c-0.2-0.2-0.4-0.5-0.5-0.8c-0.1-0.3-0.2-0.6-0.2-1
		c0-0.4,0.1-0.7,0.2-1c0.1-0.3,0.3-0.6,0.5-0.8C65,3.3,65.3,3.2,65.6,3c0.3-0.1,0.7-0.2,1.1-0.2c0.4,0,0.8,0.1,1.1,0.2
		c0.3,0.1,0.6,0.3,0.8,0.6c0.2,0.2,0.4,0.5,0.5,0.8c0.1,0.3,0.2,0.6,0.2,1c0,0.1,0,0.2,0,0.2c0,0.1,0,0.1,0,0.2h-3.9
		c0,0.2,0.1,0.4,0.1,0.5c0.1,0.2,0.2,0.3,0.3,0.4C66,6.9,66.1,6.9,66.3,7c0.2,0.1,0.3,0.1,0.5,0.1c0.3,0,0.5-0.1,0.7-0.2
		c0.2-0.1,0.4-0.3,0.5-0.5l1.1,0.3c-0.2,0.4-0.5,0.7-0.9,0.9C67.8,7.9,67.3,8,66.7,8z M68,5c0-0.4-0.2-0.7-0.4-0.9
		c-0.2-0.2-0.5-0.3-0.9-0.3c-0.2,0-0.3,0-0.5,0.1c-0.2,0.1-0.3,0.1-0.4,0.3c-0.1,0.1-0.2,0.2-0.3,0.4c-0.1,0.2-0.1,0.3-0.1,0.5H68z"
		/>
	<path d="M73.1,4c-0.4,0-0.7,0.1-1.1,0.2c-0.3,0.1-0.5,0.4-0.7,0.7v3.1h-1.3V2.9h1.2V4c0.1-0.2,0.2-0.3,0.3-0.5
		c0.1-0.1,0.3-0.3,0.4-0.4C72.2,3,72.3,3,72.5,2.9c0.1-0.1,0.3-0.1,0.4-0.1c0.1,0,0.1,0,0.2,0c0,0,0.1,0,0.1,0V4z"/>
	<path d="M75.2,7.9l-1.9-5.1h1.3l1.3,4l1.3-4h1.2l-1.9,5.1H75.2z"/>
	<path d="M79.2,2.2V0.9h1.3v1.3H79.2z M79.2,7.9V2.9h1.3v5.1H79.2z"/>
	<path d="M81.3,5.4c0-0.4,0.1-0.7,0.2-1c0.1-0.3,0.3-0.6,0.5-0.8c0.2-0.2,0.5-0.4,0.8-0.6c0.3-0.1,0.7-0.2,1.1-0.2
		c0.6,0,1,0.1,1.4,0.4c0.4,0.2,0.7,0.5,0.9,0.9L85,4.5c-0.1-0.2-0.3-0.3-0.4-0.4C84.4,4,84.2,3.9,84,3.9c-0.2,0-0.4,0-0.5,0.1
		c-0.2,0.1-0.3,0.2-0.4,0.3c-0.1,0.1-0.2,0.3-0.3,0.5c-0.1,0.2-0.1,0.4-0.1,0.6c0,0.2,0,0.4,0.1,0.6c0.1,0.2,0.2,0.3,0.3,0.5
		c0.1,0.1,0.3,0.2,0.4,0.3c0.2,0.1,0.3,0.1,0.5,0.1c0.2,0,0.4-0.1,0.6-0.2c0.2-0.1,0.3-0.3,0.4-0.4l1.3,0.4
		c-0.2,0.4-0.5,0.7-0.9,0.9C85,7.9,84.5,8,84,8c-0.4,0-0.8-0.1-1.1-0.2c-0.3-0.1-0.6-0.3-0.8-0.6c-0.2-0.2-0.4-0.5-0.5-0.8
		C81.4,6.1,81.3,5.8,81.3,5.4z"/>
	<path d="M89.4,8C89,8,88.6,8,88.3,7.8c-0.3-0.1-0.6-0.3-0.8-0.6C87.2,7,87,6.8,86.9,6.4c-0.1-0.3-0.2-0.6-0.2-1
		c0-0.4,0.1-0.7,0.2-1c0.1-0.3,0.3-0.6,0.5-0.8c0.2-0.2,0.5-0.4,0.8-0.6c0.3-0.1,0.7-0.2,1.1-0.2c0.4,0,0.8,0.1,1.1,0.2
		c0.3,0.1,0.6,0.3,0.8,0.6c0.2,0.2,0.4,0.5,0.5,0.8c0.1,0.3,0.2,0.6,0.2,1c0,0.1,0,0.2,0,0.2c0,0.1,0,0.1,0,0.2h-3.9
		c0,0.2,0.1,0.4,0.1,0.5c0.1,0.2,0.2,0.3,0.3,0.4c0.1,0.1,0.3,0.2,0.4,0.3c0.2,0.1,0.3,0.1,0.5,0.1c0.3,0,0.5-0.1,0.7-0.2
		c0.2-0.1,0.4-0.3,0.5-0.5l1.1,0.3c-0.2,0.4-0.5,0.7-0.9,0.9C90.4,7.9,89.9,8,89.4,8z M90.7,5c0-0.4-0.2-0.7-0.4-0.9
		c-0.2-0.2-0.5-0.3-0.9-0.3c-0.2,0-0.3,0-0.5,0.1c-0.2,0.1-0.3,0.1-0.4,0.3c-0.1,0.1-0.2,0.2-0.3,0.4C88.1,4.6,88.1,4.8,88,5H90.7z"
		/>
</g>
</svg>
