<?xml version="1.0" encoding="utf-8"?>
<!-- Generator: Adobe Illustrator 22.1.0, SVG Export Plug-In . SVG Version: 6.00 Build 0)  -->
<svg version="1.1" id="Layer_1" xmlns="http://www.w3.org/2000/svg" xmlns:xlink="http://www.w3.org/1999/xlink" x="0px" y="0px"
	 viewBox="0 0 370 70" style="enable-background:new 0 0 370 70;" xml:space="preserve">
<style type="text/css">
	.st0{fill:#60D158;}
</style>
<g>
	<path class="st0" d="M18.5,46V20.4h9.8c2.1,0,4,0.3,5.6,1c1.6,0.7,3,1.6,4,2.7c1.1,1.2,1.9,2.5,2.4,4.1c0.6,1.5,0.8,3.2,0.8,5
		c0,1.9-0.3,3.7-0.9,5.3c-0.6,1.6-1.5,2.9-2.6,4c-1.1,1.1-2.5,2-4.1,2.6C32,45.7,30.3,46,28.3,46H18.5z M34.1,33.2
		c0-1-0.1-1.9-0.4-2.7c-0.3-0.8-0.6-1.5-1.1-2.1c-0.5-0.6-1.1-1-1.8-1.4c-0.7-0.3-1.5-0.5-2.4-0.5h-2.8v13.3h2.8
		c0.9,0,1.7-0.2,2.4-0.5c0.7-0.3,1.3-0.8,1.8-1.4c0.5-0.6,0.9-1.3,1.1-2.1C34,35,34.1,34.1,34.1,33.2z"/>
	<path class="st0" d="M48.8,46.4c-1.9,0-3.4-0.6-4.4-1.7c-1-1.2-1.5-2.9-1.5-5.1V27.1h6.8V38c0,0.8,0.2,1.5,0.6,1.9
		c0.4,0.5,0.9,0.7,1.5,0.7c0.5,0,1.1-0.1,1.6-0.4c0.6-0.2,1.1-0.8,1.7-1.6V27.1H62v11.4c0,0.6,0.1,1.1,0.3,1.4
		c0.2,0.3,0.5,0.4,1,0.5V46c-1.2,0.2-2.1,0.4-2.9,0.4c-2.3,0-3.7-0.9-4-2.6L56.2,43c-0.9,1.2-1.9,2-3.2,2.5
		C51.8,46.1,50.4,46.4,48.8,46.4z"/>
	<path class="st0" d="M77.8,46l-4.3-6.9l-1.4,1.5V46h-6.8V19.7h6.8v14.4l5-7h7.2l-6.5,8.3L85.1,46H77.8z"/>
	<path class="st0" d="M98.9,44.9c-1,0.4-2,0.8-3.1,1c-1.1,0.3-2.2,0.4-3.2,0.4c-0.8,0-1.5-0.1-2.2-0.3c-0.7-0.2-1.3-0.5-1.8-0.9
		c-0.5-0.4-0.9-1-1.2-1.7c-0.3-0.7-0.5-1.6-0.5-2.6v-8.7h-2.3v-5.1h2.3v-5.9h6.8v5.9h3.7v5.1h-3.7v6.3c0,0.6,0.1,1.1,0.4,1.3
		c0.3,0.3,0.6,0.4,1.1,0.4c0.3,0,0.7-0.1,1.2-0.2c0.4-0.1,0.9-0.3,1.3-0.4L98.9,44.9z"/>
	<path class="st0" d="M100.1,25.5v-5.8h6.8v5.8H100.1z M100.1,46V27.1h6.8V46H100.1z"/>
	<path class="st0" d="M116.9,46c-1.2,0-2.3-0.2-3.4-0.7c-1-0.5-1.9-1.2-2.6-2c-0.7-0.9-1.3-1.9-1.7-3c-0.4-1.2-0.6-2.4-0.6-3.7
		c0-1.4,0.2-2.7,0.6-3.9c0.4-1.2,1-2.2,1.8-3.1c0.8-0.9,1.7-1.5,2.8-2c1.1-0.5,2.3-0.7,3.6-0.7c1.4,0,2.6,0.3,3.6,0.8
		c1,0.5,1.8,1.3,2.4,2.4v-2.8h5.9v17.2c0,1.5-0.3,2.8-0.8,4c-0.6,1.2-1.3,2.2-2.3,3.1c-1,0.8-2.2,1.5-3.6,2c-1.4,0.5-3,0.7-4.7,0.7
		c-2,0-3.8-0.3-5.3-0.9c-1.5-0.6-2.8-1.5-4-2.7l3.6-3.7c0.7,0.6,1.5,1.2,2.5,1.6c1,0.4,2,0.7,3.1,0.7c0.6,0,1.2-0.1,1.8-0.3
		c0.6-0.2,1.1-0.4,1.5-0.8c0.4-0.4,0.8-0.9,1-1.5c0.3-0.6,0.4-1.3,0.4-2.2V43c-0.6,1-1.3,1.8-2.4,2.2C119.3,45.8,118.2,46,116.9,46z
		 M119.4,40.6c0.7,0,1.3-0.2,1.8-0.5c0.5-0.3,1-0.8,1.5-1.5v-3.4c-0.3-0.9-0.8-1.5-1.5-2.1c-0.7-0.5-1.4-0.8-2.1-0.8
		c-0.5,0-0.9,0.1-1.4,0.3c-0.4,0.2-0.8,0.5-1.1,0.9c-0.3,0.4-0.6,0.8-0.7,1.3c-0.2,0.5-0.3,1.1-0.3,1.6c0,1.2,0.3,2.1,1,2.8
		C117.4,40.2,118.3,40.6,119.4,40.6z"/>
</g>
<g>
	<path d="M133.4,46.3v-5.1h3.9v5.1H133.4z"/>
	<path d="M162.4,46.3V29.6L155.9,42h-2.7l-6.5-12.4v16.6h-4.9V21.1h5.2l7.4,14.3l7.5-14.3h5.2v25.1H162.4z"/>
	<path d="M172.1,25.1v-4.7h4.7v4.7H172.1z M172.1,46.3V27.7h4.7v18.5H172.1z"/>
	<path d="M179.9,37c0-1.3,0.2-2.5,0.7-3.7c0.4-1.2,1.1-2.2,1.9-3c0.8-0.9,1.9-1.6,3.1-2.1c1.2-0.5,2.6-0.8,4.1-0.8
		c2,0,3.8,0.4,5.2,1.3c1.4,0.9,2.5,2,3.2,3.4l-4.6,1.4c-0.4-0.7-0.9-1.2-1.6-1.6c-0.7-0.4-1.4-0.5-2.2-0.5c-0.7,0-1.3,0.1-1.9,0.4
		c-0.6,0.3-1.1,0.6-1.5,1.1c-0.4,0.5-0.8,1.1-1,1.8c-0.2,0.7-0.4,1.4-0.4,2.3c0,0.8,0.1,1.6,0.4,2.3c0.3,0.7,0.6,1.3,1,1.8
		c0.4,0.5,0.9,0.9,1.5,1.1c0.6,0.3,1.2,0.4,1.9,0.4c0.8,0,1.6-0.2,2.4-0.6c0.7-0.4,1.2-0.9,1.5-1.6l4.6,1.4
		c-0.6,1.4-1.7,2.6-3.1,3.5c-1.5,0.9-3.2,1.3-5.3,1.3c-1.5,0-2.9-0.3-4.1-0.8s-2.2-1.2-3.1-2.1c-0.8-0.9-1.5-1.9-2-3.1
		C180.1,39.5,179.9,38.3,179.9,37z"/>
	<path d="M212.1,31.8c-1.4,0-2.7,0.3-3.9,0.8s-1.9,1.3-2.4,2.4v11.2H201V27.7h4.4v4c0.3-0.6,0.7-1.2,1.2-1.7
		c0.4-0.5,0.9-0.9,1.5-1.3c0.5-0.4,1-0.7,1.6-0.9c0.5-0.2,1-0.3,1.5-0.3c0.3,0,0.5,0,0.6,0c0.1,0,0.3,0,0.4,0V31.8z"/>
	<path d="M222.4,46.6c-1.5,0-2.9-0.3-4.1-0.8s-2.2-1.2-3.1-2.1c-0.8-0.9-1.5-1.9-1.9-3.1c-0.4-1.2-0.7-2.4-0.7-3.6
		c0-1.3,0.2-2.5,0.7-3.7c0.4-1.2,1.1-2.2,1.9-3.1c0.8-0.9,1.9-1.6,3.1-2.1c1.2-0.5,2.6-0.8,4.1-0.8c1.5,0,2.9,0.3,4.1,0.8
		c1.2,0.5,2.2,1.2,3,2.1c0.8,0.9,1.5,1.9,1.9,3.1c0.4,1.2,0.7,2.4,0.7,3.7c0,1.3-0.2,2.5-0.7,3.6c-0.4,1.2-1.1,2.2-1.9,3.1
		c-0.8,0.9-1.8,1.6-3,2.1S223.9,46.6,222.4,46.6z M217.5,37c0,0.8,0.1,1.6,0.4,2.2c0.2,0.7,0.6,1.3,1,1.8c0.4,0.5,0.9,0.9,1.5,1.1
		c0.6,0.3,1.2,0.4,1.9,0.4c0.7,0,1.3-0.1,1.9-0.4c0.6-0.3,1.1-0.7,1.5-1.1c0.4-0.5,0.8-1.1,1-1.8c0.2-0.7,0.4-1.4,0.4-2.3
		c0-0.8-0.1-1.5-0.4-2.2c-0.2-0.7-0.6-1.3-1-1.8c-0.4-0.5-0.9-0.9-1.5-1.1c-0.6-0.3-1.2-0.4-1.9-0.4c-0.7,0-1.3,0.1-1.9,0.4
		c-0.6,0.3-1.1,0.7-1.5,1.2s-0.8,1.1-1,1.8C217.7,35.5,217.5,36.2,217.5,37z"/>
	<path d="M242.3,46.6c-1.6,0-3.1-0.2-4.6-0.7c-1.5-0.5-2.8-1.2-3.8-2.1l1.8-3c1.1,0.8,2.2,1.4,3.3,1.8s2.1,0.6,3.2,0.6
		c0.9,0,1.7-0.2,2.2-0.5c0.5-0.4,0.8-0.9,0.8-1.5c0-0.7-0.3-1.1-1-1.5c-0.6-0.3-1.7-0.7-3.1-1.1c-1.2-0.3-2.2-0.6-3.1-1
		c-0.8-0.3-1.5-0.7-2.1-1c-0.5-0.4-0.9-0.8-1.1-1.3c-0.2-0.5-0.4-1.1-0.4-1.8c0-0.9,0.2-1.8,0.5-2.5c0.4-0.8,0.9-1.4,1.5-1.9
		c0.7-0.5,1.4-0.9,2.3-1.2c0.9-0.3,1.8-0.4,2.9-0.4c1.4,0,2.7,0.2,3.9,0.6c1.2,0.4,2.3,1,3.3,1.9l-1.9,2.9c-0.9-0.7-1.9-1.2-2.7-1.6
		c-0.9-0.3-1.8-0.5-2.6-0.5c-0.8,0-1.5,0.2-2,0.5c-0.5,0.3-0.8,0.9-0.8,1.6c0,0.3,0.1,0.6,0.2,0.8c0.1,0.2,0.3,0.4,0.6,0.6
		c0.3,0.2,0.7,0.3,1.1,0.5c0.5,0.2,1,0.3,1.7,0.5c1.3,0.3,2.4,0.7,3.3,1c0.9,0.3,1.7,0.7,2.2,1.1c0.6,0.4,1,0.9,1.3,1.5
		c0.3,0.6,0.4,1.2,0.4,2c0,1.8-0.7,3.2-2,4.3C246.4,46.1,244.6,46.6,242.3,46.6z"/>
	<path d="M261.4,46.6c-1.5,0-2.8-0.3-4-0.8c-1.2-0.5-2.2-1.2-3.1-2.1c-0.8-0.9-1.5-1.9-2-3c-0.5-1.2-0.7-2.4-0.7-3.6
		c0-1.3,0.2-2.6,0.7-3.7c0.4-1.2,1.1-2.2,1.9-3.1c0.8-0.9,1.9-1.6,3.1-2.1c1.2-0.5,2.6-0.8,4.1-0.8c1.5,0,2.9,0.3,4.1,0.8
		c1.2,0.5,2.2,1.2,3,2.1c0.8,0.9,1.5,1.9,1.9,3c0.4,1.2,0.7,2.4,0.7,3.6c0,0.3,0,0.6,0,0.9c0,0.3,0,0.5-0.1,0.7h-14.3
		c0.1,0.7,0.2,1.4,0.5,1.9c0.3,0.6,0.6,1.1,1.1,1.5c0.4,0.4,1,0.7,1.5,0.9c0.6,0.2,1.2,0.3,1.8,0.3c0.9,0,1.8-0.2,2.7-0.7
		c0.8-0.5,1.4-1.1,1.7-1.8l4.1,1.1c-0.7,1.4-1.8,2.6-3.3,3.5S263.5,46.6,261.4,46.6z M266.3,35.4c-0.1-1.4-0.6-2.5-1.5-3.3
		c-0.9-0.8-2-1.3-3.3-1.3c-0.6,0-1.2,0.1-1.8,0.3c-0.6,0.2-1,0.5-1.5,0.9c-0.4,0.4-0.8,0.9-1,1.5c-0.3,0.6-0.4,1.2-0.5,1.9H266.3z"
		/>
	<path d="M285.1,31.8c-1.4,0-2.7,0.3-3.9,0.8s-1.9,1.3-2.4,2.4v11.2H274V27.7h4.4v4c0.3-0.6,0.7-1.2,1.2-1.7
		c0.4-0.5,0.9-0.9,1.5-1.3c0.5-0.4,1-0.7,1.6-0.9c0.5-0.2,1-0.3,1.5-0.3c0.3,0,0.5,0,0.6,0c0.1,0,0.3,0,0.4,0V31.8z"/>
	<path d="M292.7,46.3l-6.8-18.5h4.9l4.7,14.7l4.7-14.7h4.5l-6.8,18.5H292.7z"/>
	<path d="M307.2,25.1v-4.7h4.7v4.7H307.2z M307.2,46.3V27.7h4.7v18.5H307.2z"/>
	<path d="M315,37c0-1.3,0.2-2.5,0.7-3.7c0.4-1.2,1.1-2.2,1.9-3c0.8-0.9,1.9-1.6,3.1-2.1c1.2-0.5,2.6-0.8,4.1-0.8
		c2,0,3.8,0.4,5.2,1.3c1.4,0.9,2.5,2,3.2,3.4l-4.6,1.4c-0.4-0.7-0.9-1.2-1.6-1.6c-0.7-0.4-1.4-0.5-2.2-0.5c-0.7,0-1.3,0.1-1.9,0.4
		c-0.6,0.3-1.1,0.6-1.5,1.1c-0.4,0.5-0.8,1.1-1,1.8c-0.2,0.7-0.4,1.4-0.4,2.3c0,0.8,0.1,1.6,0.4,2.3c0.3,0.7,0.6,1.3,1,1.8
		c0.4,0.5,0.9,0.9,1.5,1.1c0.6,0.3,1.2,0.4,1.9,0.4c0.8,0,1.6-0.2,2.4-0.6c0.7-0.4,1.2-0.9,1.5-1.6l4.6,1.4
		c-0.6,1.4-1.7,2.6-3.1,3.5c-1.5,0.9-3.2,1.3-5.3,1.3c-1.5,0-2.9-0.3-4.1-0.8s-2.2-1.2-3.1-2.1c-0.8-0.9-1.5-1.9-2-3.1
		C315.2,39.5,315,38.3,315,37z"/>
	<path d="M344.6,46.6c-1.5,0-2.8-0.3-4-0.8c-1.2-0.5-2.2-1.2-3.1-2.1c-0.8-0.9-1.5-1.9-2-3c-0.5-1.2-0.7-2.4-0.7-3.6
		c0-1.3,0.2-2.6,0.7-3.7c0.4-1.2,1.1-2.2,1.9-3.1c0.8-0.9,1.9-1.6,3.1-2.1c1.2-0.5,2.6-0.8,4.1-0.8c1.5,0,2.9,0.3,4.1,0.8
		c1.2,0.5,2.2,1.2,3,2.1c0.8,0.9,1.5,1.9,1.9,3c0.4,1.2,0.7,2.4,0.7,3.6c0,0.3,0,0.6,0,0.9c0,0.3,0,0.5-0.1,0.7h-14.3
		c0.1,0.7,0.2,1.4,0.5,1.9c0.3,0.6,0.6,1.1,1.1,1.5c0.4,0.4,1,0.7,1.5,0.9c0.6,0.2,1.2,0.3,1.8,0.3c0.9,0,1.8-0.2,2.7-0.7
		c0.8-0.5,1.4-1.1,1.7-1.8l4.1,1.1c-0.7,1.4-1.8,2.6-3.3,3.5S346.6,46.6,344.6,46.6z M349.4,35.4c-0.1-1.4-0.6-2.5-1.5-3.3
		c-0.9-0.8-2-1.3-3.3-1.3c-0.6,0-1.2,0.1-1.8,0.3c-0.6,0.2-1,0.5-1.5,0.9c-0.4,0.4-0.8,0.9-1,1.5c-0.3,0.6-0.4,1.2-0.5,1.9H349.4z"
		/>
</g>
</svg>
